<?xml version="1.0" encoding="UTF-8" standalone="no"?>
<!-- Created with Inkscape (http://www.inkscape.org/) -->

<svg
   xmlns:dc="http://purl.org/dc/elements/1.1/"
   xmlns:cc="http://creativecommons.org/ns#"
   xmlns:rdf="http://www.w3.org/1999/02/22-rdf-syntax-ns#"
   xmlns:svg="http://www.w3.org/2000/svg"
   xmlns="http://www.w3.org/2000/svg"
   xmlns:sodipodi="http://sodipodi.sourceforge.net/DTD/sodipodi-0.dtd"
   xmlns:inkscape="http://www.inkscape.org/namespaces/inkscape"
   width="499.18015mm"
   height="541.86664mm"
   viewBox="0 0 1768.7485 1919.9999"
   id="svg4183"
   version="1.1"
   inkscape:version="0.91 r"
   sodipodi:docname="St Patrick Minimalist Clover - 1.0.0.svg">
  <defs
     id="defs4185" />
  <sodipodi:namedview
     id="base"
     pagecolor="#ffffff"
     bordercolor="#666666"
     borderopacity="1.0"
     inkscape:pageopacity="0.0"
     inkscape:pageshadow="2"
     inkscape:zoom="0.12374369"
     inkscape:cx="262.55678"
     inkscape:cy="290.72736"
     inkscape:document-units="px"
     inkscape:current-layer="layer1"
     showgrid="false"
     fit-margin-top="0"
     fit-margin-left="0"
     fit-margin-right="0"
     fit-margin-bottom="0" />
  <metadata
     id="metadata4188">
    <rdf:RDF>
      <cc:Work
         rdf:about="">
        <dc:format>image/svg+xml</dc:format>
        <dc:type
           rdf:resource="http://purl.org/dc/dcmitype/StillImage" />
        <dc:title></dc:title>
      </cc:Work>
    </rdf:RDF>
  </metadata>
  <g
     inkscape:label="Camada 1"
     inkscape:groupmode="layer"
     id="layer1"
     transform="translate(8.3400158,874.3419)">
    <path
       style="color:#000000;clip-rule:nonzero;display:inline;overflow:visible;visibility:visible;opacity:1;isolation:auto;mix-blend-mode:normal;color-interpolation:sRGB;color-interpolation-filters:linearRGB;solid-color:#000000;solid-opacity:1;fill:#008000;fill-opacity:1;fill-rule:nonzero;stroke:none;stroke-width:29.0739994;stroke-linecap:butt;stroke-linejoin:miter;stroke-miterlimit:4;stroke-dasharray:none;stroke-dashoffset:0;stroke-opacity:0.19117647;color-rendering:auto;image-rendering:auto;shape-rendering:auto;text-rendering:auto;enable-background:accumulate"
       d="m 876.03415,-874.3419 c -82.3133,0 -156.83444,33.3667 -210.77699,87.30924 -53.94236,53.94235 -87.30571,128.46037 -87.30571,210.77368 0,50.43734 12.54532,126.94638 34.65764,208.80343 -66.69655,-52.35372 -132.2096,-93.81082 -178.6327,-113.52931 -75.76202,-32.18068 -157.39627,-30.60807 -228.13408,-2.04756 -70.73824,28.56032 -130.582545,84.10915 -162.763216,159.87115 -32.180462,75.76222 -30.604321,157.39315 -2.044015,228.130968 10.064397,24.92747 23.495163,48.491024 39.965348,69.978748 C 61.695558,-6.0696842 45.110846,15.39352 31.66948,38.674596 -6.4734223,104.74032 -19.413451,185.35672 1.890954,264.86548 23.19515,344.37382 74.710205,407.72043 140.77572,445.86354 206.84146,484.00665 287.45805,496.94647 366.9666,475.64227 460.93125,450.46455 636.43787,355.18378 755.53867,248.63059 674.13576,395.59996 558.82492,656.38926 499.0596,1032.0739 l 85.39243,13.5842 c 60.37224,-379.49981 175.69846,-632.44872 252.55523,-767.43314 28.47134,156.92838 107.7274,339.08584 166.04994,416.52128 49.5218,65.75021 121.0052,105.20653 196.5463,115.84127 75.541,10.63537 155.1394,-7.54959 220.8898,-57.07114 65.7502,-49.52175 105.1994,-121.00161 115.8346,-196.54268 3.7478,-26.62001 3.9018,-53.74344 0.382,-80.58751 26.2095,-6.78616 51.3016,-17.08148 74.5825,-30.52264 66.0659,-38.14311 117.5812,-101.48951 138.8852,-180.99806 21.3044,-79.50876 8.3641,-160.12516 -29.7787,-226.190884 -38.1432,-66.065725 -101.4862,-117.580784 -180.9948,-138.884986 -48.7191,-13.05413 -125.8695,-20.74029 -210.6598,-20.56757 67.8311,-50.873 124.8323,-103.42357 155.8937,-143.16069 50.6928,-64.85167 70.301,-144.11119 61.0221,-219.83081 -9.2788,-75.71982 -47.4448,-147.90076 -112.2964,-198.59355 -64.8515,-50.69259 -144.1079,-70.29718 -219.8275,-61.01867 -26.683,3.26993 -52.9218,10.14275 -77.9403,20.49067 -13.3383,-23.56043 -29.7756,-45.13296 -48.7845,-64.14165 -53.9424,-53.94254 -128.46392,-87.30924 -210.77725,-87.30924 z"
       id="path4138"
       inkscape:connector-curvature="0" />
  </g>
</svg>
